<svg width="440" height="441" viewBox="0 0 440 441" fill="none" xmlns="http://www.w3.org/2000/svg">
<path d="M57.7468 92.5356C54.8857 100.447 54.018 105.731 53.3291 107.98C51.2563 114.509 49.5462 121.147 48.2065 127.865C44.3619 148.042 38.7805 168.878 40.3752 189.624C41.3616 202.486 48.441 202.141 59.6566 204.385C69.5999 206.376 80.282 205.676 90.3851 206.795C97.3033 207.563 106.339 210.518 112.983 208.303C115.117 207.592 114.486 202.848 114.486 201.373C114.45 195.604 113.844 189.853 112.679 184.202C112.397 182.773 112.271 178.97 111.474 178.178C110.143 176.842 106.127 176.743 104.245 176.365C96.8007 174.915 89.2305 174.21 81.6466 174.26C79.8057 174.26 72.0374 174.926 71.1023 173.056C69.106 169.04 71.5904 159.756 72.0096 155.58C73.3917 141.731 74.0909 127.79 75.624 114.004C76.1047 109.651 76.071 104.675 77.1322 100.446C77.2758 99.8744 77.9823 97.3783 77.7068 97.1306C74.2873 93.6832 62.44 92.5356 57.7468 92.5356Z" fill="#1E9A64"/>
<path d="M162.225 203.995C154.807 203.267 105.752 154.932 105.939 132.645C106.061 119.047 102.773 112.954 119.658 98.6917C130.518 89.5119 149.082 99.2662 156.534 106.269C158.922 108.507 160.894 111.75 162.552 114.636C163.546 116.356 164.739 120.315 164.739 120.315C165.056 118.49 165.511 116.693 166.104 114.939C167.316 111.882 168.686 108.888 170.206 105.972C175.197 96.8962 184.371 90.3957 194.301 92.823C211.013 96.9255 223.061 110.068 220.818 127.44C216.785 158.454 176.494 205.389 162.225 203.995Z" fill="#FB8CAC"/>
<path d="M384.302 99.9316C371.021 98.784 348.657 96.4887 332.749 104.182C328.516 106.237 327.586 118.273 327.012 122.725C325.567 133.574 325.199 144.291 325.199 155.265C325.199 166.24 323.994 177.101 323.994 188.104C323.994 191.15 322.846 197.542 324.299 200.456C326.593 205.017 337.144 204.846 341.47 205.275C350.723 206.204 360.259 206.503 369.49 205.58C377.022 204.828 383.075 206.32 389.976 202.865C394.795 200.456 395.094 180.267 390.883 178.162C388.369 176.906 384.199 177.416 381.542 177.863C374.87 178.971 367.2 179.97 360.453 179.97C359.14 179.97 352.525 181.69 351.412 180.572C350.299 179.452 351.114 174.048 351.114 172.436C351.114 171.29 350.173 164.037 350.809 163.401C354.825 159.385 366.964 162.517 372.502 161.594C374.52 161.255 377.372 162.098 378.53 159.787C379.524 157.795 378.14 153.263 377.957 151.347C377.791 149.861 378.227 143.803 376.449 142.913C371.342 140.36 363.298 141.404 357.471 141.404C352.805 141.404 347.395 143.854 348.732 137.188C349.307 134.279 348.927 129.156 350.838 127.245C355.88 122.209 370.683 123.723 377.654 122.725C381.152 122.227 387.544 123.987 389.7 121.825C390.641 120.878 389.999 114.177 389.999 112.781C389.982 109.564 387.32 100.191 384.302 99.9316Z" fill="#1E9A64"/>
<path d="M165.791 236.581C161.202 236.006 121.52 238.164 120.837 239.507C119.959 241.227 120.264 245.198 120.004 247.417C119.781 249.391 118.197 257.916 119.431 259.15C122.971 262.632 134.588 259.971 139.683 259.971C141.019 259.971 146.034 260.235 146.986 261.17C148.437 262.597 147.727 265.656 147.727 267.887C147.727 274.198 148.437 280.985 147.727 287.261C146.774 295.706 147.152 304.392 147.152 312.912C147.152 314.06 147.984 320.553 147.152 321.368C146.195 322.315 142.047 321.643 140.773 321.643C135.432 321.643 124.469 319.923 120.522 323.823C117.917 326.388 118.025 330.92 118.025 334.723C118.025 338.034 116.746 342.848 118.301 345.911C119.792 348.854 127.532 349.187 130.227 349.187C142.787 349.187 155.414 349.864 167.955 348.911C175.412 348.338 182.997 349.187 190.427 349.187C192.762 349.187 197.437 349.691 199.607 348.642C203.708 346.622 200.869 333.725 200.438 330.358C200.272 329.061 200.282 325.023 199.325 324.082C198.459 323.226 194.672 323.508 193.221 323.508C187.903 323.508 182.704 323.777 177.41 323.777C176.457 323.777 171.494 324.506 170.754 323.777C170.278 323.313 170.754 319.865 170.754 319.141C170.754 313.451 171.329 307.863 171.329 302.224C171.329 292.712 171.902 283.05 171.902 273.567C171.902 272.61 171.329 265.403 171.902 265.111C175.345 263.389 186.543 263.865 190.508 263.865C191.718 263.865 194.557 264.245 195.223 263.595C196.658 262.18 195.797 255.484 195.797 253.224C195.797 250.962 197.156 242.283 195.522 240.67C192.384 237.676 169.774 237.05 165.791 236.581Z" fill="#FBC604"/>
<path d="M225.457 234.211C223.266 235.88 221.188 258.369 223.208 258.219C224.659 258.093 252.139 259.144 253.257 261.353C254.102 263 252.834 266.459 252.684 268.174C252.359 272.643 251.896 277.101 251.296 281.541C249.442 295.517 249.81 309.361 248.519 323.296C248.025 328.689 247.613 329.096 247.228 334.483C246.895 339.182 246.16 343.575 248.243 346.084C251.295 347.972 267.227 349.102 270.159 346.216C275.448 341.018 273.824 330.662 274.324 323.842C275.224 311.374 276.779 299.131 277.927 286.729C278.627 279.161 279.441 270.664 282.642 264.353C282.642 261.353 300.025 266.516 309.636 266.516C310.675 265.501 310.262 262.965 310.468 261.353C311.14 256.069 311.858 250.59 311.858 245.249C311.858 244.389 312.833 240.477 312.132 239.794C306.237 234.042 259.302 234.818 250.59 234.211C239.953 233.413 228.755 232.578 225.457 234.211Z" fill="#FBC604"/>
<path d="M225.457 234.211C223.266 235.88 221.188 258.369 223.208 258.219C224.659 258.093 252.139 259.144 253.257 261.353C254.102 263 252.834 266.459 252.684 268.174C252.359 272.643 251.896 277.101 251.296 281.541C249.442 295.517 249.81 309.361 248.519 323.296C248.025 328.689 247.613 329.096 247.228 334.483C246.895 339.182 246.16 343.575 248.243 346.084C251.295 347.972 267.227 349.102 270.159 346.216C275.448 341.018 273.824 330.662 274.324 323.842C275.224 311.374 276.779 299.131 277.927 286.729C278.627 279.161 279.441 270.664 282.642 264.353C282.642 261.353 300.025 266.516 309.636 266.516C310.675 265.501 310.262 262.965 310.468 261.353C311.14 256.069 311.858 250.59 311.858 245.249C311.858 244.389 312.833 240.477 312.132 239.794C306.237 234.042 259.302 234.818 250.59 234.211C239.953 233.413 228.755 232.578 225.457 234.211Z" stroke="#292524" stroke-width="1.75885" stroke-linecap="round" stroke-linejoin="round"/>
<path d="M232.427 101.044C231.726 102.96 233.517 111.094 234.004 113.051C236.059 121.255 237.75 129.511 239.587 137.766C240.981 144.036 242.14 150.33 243.969 156.498C247.825 169.463 250.452 182.624 254.33 195.556C255.208 198.47 256.218 205.21 258.118 207.116C258.352 207.35 260.986 207.437 261.307 207.517C265.086 208.494 268.965 209.029 272.867 209.112C276.464 209.112 284.226 208.744 287.784 207.661C291.03 206.673 297.255 187.971 299.401 178.442C304.202 157.1 316.985 102.667 317.306 101.537C318.355 97.8019 295.075 97.1072 293.566 100.499C288.552 111.799 281.518 161.242 276.034 172.212C275.741 172.785 260.543 99.9243 258.892 98.2783C257.795 97.1995 233.923 96.9899 232.427 101.044Z" fill="#1E9A64"/>
<path d="M57.7468 92.5356C54.8857 100.447 54.018 105.731 53.3291 107.98C51.2563 114.509 49.5462 121.147 48.2065 127.865C44.3619 148.042 38.7805 168.878 40.3752 189.624C41.3616 202.486 48.441 202.141 59.6566 204.385C69.5999 206.376 80.282 205.676 90.3851 206.795C97.3033 207.563 106.339 210.518 112.983 208.303C115.117 207.592 114.486 202.848 114.486 201.373C114.45 195.604 113.844 189.853 112.679 184.202C112.397 182.773 112.271 178.97 111.474 178.178C110.143 176.842 106.127 176.743 104.245 176.365C96.8007 174.915 89.2305 174.21 81.6466 174.26C79.8057 174.26 72.0374 174.926 71.1023 173.056C69.106 169.04 71.5904 159.756 72.0096 155.58C73.3917 141.731 74.0909 127.79 75.624 114.004C76.1047 109.651 76.071 104.675 77.1322 100.446C77.2758 99.8744 77.9823 97.3783 77.7068 97.1306C74.2873 93.6832 62.44 92.5356 57.7468 92.5356Z" stroke="#292524" stroke-width="1.75885" stroke-linecap="round" stroke-linejoin="round"/>
<path d="M162.225 203.995C154.807 203.267 105.752 154.932 105.939 132.645C106.061 119.047 102.773 112.954 119.658 98.6917C130.518 89.5119 149.082 99.2662 156.534 106.269C158.922 108.507 160.894 111.75 162.552 114.636C163.546 116.356 164.739 120.315 164.739 120.315C165.056 118.49 165.511 116.693 166.104 114.939C167.316 111.882 168.686 108.888 170.206 105.972C175.197 96.8962 184.371 90.3957 194.301 92.823C211.013 96.9255 223.061 110.068 220.818 127.44C216.785 158.454 176.494 205.389 162.225 203.995Z" stroke="#292524" stroke-width="1.75885" stroke-linecap="round" stroke-linejoin="round"/>
<path d="M384.302 99.9316C371.021 98.784 348.657 96.4887 332.749 104.182C328.516 106.237 327.586 118.273 327.012 122.725C325.567 133.574 325.199 144.291 325.199 155.265C325.199 166.24 323.994 177.101 323.994 188.104C323.994 191.15 322.846 197.542 324.299 200.456C326.593 205.017 337.144 204.846 341.47 205.275C350.723 206.204 360.259 206.503 369.49 205.58C377.022 204.828 383.075 206.32 389.976 202.865C394.795 200.456 395.094 180.267 390.883 178.162C388.369 176.906 384.199 177.416 381.542 177.863C374.87 178.971 367.2 179.97 360.453 179.97C359.14 179.97 352.525 181.69 351.412 180.572C350.299 179.452 351.114 174.048 351.114 172.436C351.114 171.29 350.173 164.037 350.809 163.401C354.825 159.385 366.964 162.517 372.502 161.594C374.52 161.255 377.372 162.098 378.53 159.787C379.524 157.795 378.14 153.263 377.957 151.347C377.791 149.861 378.227 143.803 376.449 142.913C371.342 140.36 363.298 141.404 357.471 141.404C352.805 141.404 347.395 143.854 348.732 137.188C349.307 134.279 348.927 129.156 350.838 127.245C355.88 122.209 370.683 123.723 377.654 122.725C381.152 122.227 387.544 123.987 389.7 121.825C390.641 120.878 389.999 114.177 389.999 112.781C389.982 109.564 387.32 100.191 384.302 99.9316Z" stroke="#292524" stroke-width="1.75885" stroke-linecap="round" stroke-linejoin="round"/>
<path d="M165.791 236.581C161.202 236.006 121.52 238.164 120.837 239.507C119.959 241.227 120.264 245.198 120.004 247.417C119.781 249.391 118.197 257.916 119.431 259.15C122.971 262.632 134.588 259.971 139.683 259.971C141.019 259.971 146.034 260.235 146.986 261.17C148.437 262.597 147.727 265.656 147.727 267.887C147.727 274.198 148.437 280.985 147.727 287.261C146.774 295.706 147.152 304.392 147.152 312.912C147.152 314.06 147.984 320.553 147.152 321.368C146.195 322.315 142.047 321.643 140.773 321.643C135.432 321.643 124.469 319.923 120.522 323.823C117.917 326.388 118.025 330.92 118.025 334.723C118.025 338.034 116.746 342.848 118.301 345.911C119.792 348.854 127.532 349.187 130.227 349.187C142.787 349.187 155.414 349.864 167.955 348.911C175.412 348.338 182.997 349.187 190.427 349.187C192.762 349.187 197.437 349.691 199.607 348.642C203.708 346.622 200.869 333.725 200.438 330.358C200.272 329.061 200.282 325.023 199.325 324.082C198.459 323.226 194.672 323.508 193.221 323.508C187.903 323.508 182.704 323.777 177.41 323.777C176.457 323.777 171.494 324.506 170.754 323.777C170.278 323.313 170.754 319.865 170.754 319.141C170.754 313.451 171.329 307.863 171.329 302.224C171.329 292.712 171.902 283.05 171.902 273.567C171.902 272.61 171.329 265.403 171.902 265.111C175.345 263.389 186.543 263.865 190.508 263.865C191.718 263.865 194.557 264.245 195.223 263.595C196.658 262.18 195.797 255.484 195.797 253.224C195.797 250.962 197.156 242.283 195.522 240.67C192.384 237.676 169.774 237.05 165.791 236.581Z" stroke="#292524" stroke-width="1.75885" stroke-linecap="round" stroke-linejoin="round"/>
<path d="M232.427 101.044C231.726 102.96 233.517 111.094 234.004 113.051C236.059 121.255 237.75 129.511 239.587 137.766C240.981 144.036 242.14 150.33 243.969 156.498C247.825 169.463 250.452 182.624 254.33 195.556C255.208 198.47 256.218 205.21 258.118 207.116C258.352 207.35 260.986 207.437 261.307 207.517C265.086 208.494 268.965 209.029 272.867 209.112C276.464 209.112 284.226 208.744 287.784 207.661C291.03 206.673 297.255 187.971 299.401 178.442C304.202 157.1 316.985 102.667 317.306 101.537C318.355 97.8019 295.075 97.1072 293.566 100.499C288.552 111.799 281.518 161.242 276.034 172.212C275.741 172.785 260.543 99.9243 258.892 98.2783C257.795 97.1995 233.923 96.9899 232.427 101.044Z" stroke="#292524" stroke-width="1.75885" stroke-linecap="round" stroke-linejoin="round"/>
</svg>
